Coordinates
version=1
nRows=17
nColumns=36
inDegrees=yes

Units are S.I. units (second, meters, Newtons, ...)
If the header above contains a line with 'inDegrees', this indicates whether rotational values are in degrees (yes) or radians (no).

endheader
time	pelvis_tilt	pelvis_list	pelvis_rotation	pelvis_tx	pelvis_ty	pelvis_tz	hip_flexion_r	hip_adduction_r	hip_rotation_r	knee_angle_r	knee_angle_r_beta	ankle_angle_r	subtalar_angle_r	mtp_angle_r	hip_flexion_l	hip_adduction_l	hip_rotation_l	knee_angle_l	knee_angle_l_beta	ankle_angle_l	subtalar_angle_l	mtp_angle_l	lumbar_extension	lumbar_bending	lumbar_rotation	arm_flex_r	arm_add_r	arm_rot_r	elbow_flex_r	pro_sup_r	arm_flex_l	arm_add_l	arm_rot_l	elbow_flex_l	pro_sup_l
      4.88333330	    -23.04488909	      1.20877387	     -3.40211174	      0.55707115	      0.63813171	      0.13163499	     79.38566551	    -17.15546140	      1.46766451	     89.14206529	      1.55582254	     31.38930659	    -15.21573863	     -7.49999987	     80.68609039	    -24.53602602	     -1.62110917	     88.69504858	      1.54802063	     26.46057280	     -5.70294042	     -7.49999987	    -30.34368474	     -3.00337948	     -0.36537053	     84.02332273	     10.60875380	     69.69821272	    127.87654040	     90.99584986	     86.00608076	     11.55548129	     83.67132251	    122.45249889	     80.69717977
      4.90000000	    -23.44538863	      1.06066107	     -2.96276110	      0.55680612	      0.62540678	      0.13024249	     81.18316330	    -17.63352647	      1.76114666	     91.39126324	      1.59507845	     32.37333186	    -14.73146072	     -7.49999987	     82.66562552	    -24.64327096	     -0.72606976	     90.54058191	      1.58023126	     27.16677887	     -4.70790363	     -7.49999987	    -30.63036698	     -2.65973011	     -0.50401355	     84.17886110	     10.52787786	     69.26616577	    127.69588590	     90.55484361	     86.71913368	     11.47962690	     84.11791646	    122.69475268	     80.83144603
      4.91666670	    -23.74268564	      1.12066342	     -2.89190131	      0.55843067	      0.61629185	      0.12871496	     82.70861294	    -17.82689142	      2.49868542	     93.25301125	      1.62757208	     33.01043354	    -14.49760399	     -7.49999987	     84.15430997	    -24.93536956	     -0.24685561	     92.21372170	      1.60943306	     27.98659666	     -4.53037059	     -7.49999987	    -30.99208995	     -2.65221389	     -0.65477058	     84.86838268	     10.33942667	     69.09343231	    127.80720848	     90.65140058	     87.31239665	     11.28886861	     84.04780577	    122.87893884	     80.88769786
      4.93333330	    -24.13742720	      1.13156760	     -2.75808862	      0.55387509	      0.60828184	      0.13099996	     84.43831471	    -18.09036615	      2.88679141	     94.99740954	      1.65801758	     33.54458547	    -13.85806179	     -7.49999987	     85.79256858	    -25.15028555	      0.16389027	     93.65682971	      1.63462005	     28.50739720	     -3.84034064	     -7.49999987	    -31.40259051	     -2.64377135	     -0.65443775	     85.65044843	     10.19909724	     69.14758106	    127.82183706	     90.76054459	     88.10782928	     10.94381308	     84.33846069	    123.22524464	     80.97403520
      4.95000000	    -24.50806967	      1.22558930	     -2.81746050	      0.54922412	      0.59767838	      0.12664838	     86.33468661	    -18.37027246	      3.41729685	     96.52173520	      1.68462208	     33.93634210	    -13.08174225	     -7.49999987	     87.54592216	    -25.19975865	      0.47610578	     95.17426345	      1.66110426	     29.05883287	     -3.62252322	     -7.49999987	    -31.81502642	     -2.60230829	     -0.75130913	     86.89737777	      9.93938360	     68.85789757	    127.73891796	     90.78550378	     89.16848206	     10.51372579	     83.96221756	    123.48711740	     80.99873265
      4.96666670	    -24.90229122	      1.20988017	     -2.65924122	      0.54826308	      0.58113160	      0.13155588	     88.58820986	    -18.71537252	      3.84584689	     98.83818842	      1.72505181	     34.95711748	    -12.08576357	     -7.49999987	     89.73357866	    -25.40099743	      1.28317200	     97.11991850	      1.69506235	     29.65229856	     -3.55941735	     -7.49999987	    -31.90943507	     -2.56868424	     -1.09757997	     87.93759616	     10.14303916	     68.80529308	    128.09778201	     89.61239106	     89.86652566	     10.37799406	     83.26003387	    124.09120634	     80.18536441
      4.98333330	    -25.28946297	      1.21987604	     -2.47776519	      0.54424051	      0.57346573	      0.12845421	     90.87222891	    -19.15400890	      4.31160430	    100.71445671	      1.75779887	     35.53850106	    -10.71885702	     -7.49999987	     92.11323221	    -25.46262294	      1.87913506	     99.16257152	      1.73071337	     29.53302885	     -3.92450829	     -7.49999987	    -32.10371954	     -2.37603932	     -1.34751497	     89.03784857	     10.24066518	     68.72366413	    127.74420995	     90.96132146	     90.82330526	     10.31389971	     81.88090964	    123.71218622	     81.51784762
      5.00000000	    -25.64579551	      1.20848443	     -2.53353881	      0.54110151	      0.56821501	      0.13178608	     92.46429232	    -19.00301295	      4.59312142	    101.79831544	      1.77671578	     35.66858294	     -9.81932706	     -7.49999987	     93.71503555	    -25.79452307	      2.43918991	    100.40663700	      1.75242641	     29.31367365	     -4.12498087	     -7.49999987	    -32.41252708	     -2.57718190	     -1.39784451	     89.97867095	     10.28562727	     68.29096136	    127.86645802	     90.32522768	     91.46313700	     10.17468645	     80.96641892	    123.74699842	     80.89262527
      5.01666670	    -25.89569980	      1.22092437	     -2.57637652	      0.54067382	      0.56081848	      0.13057587	     93.78650409	    -18.96822468	      4.91571189	    102.80517081	      1.79428872	     35.76246797	     -9.37346627	     -7.49999987	     95.22241435	    -25.97294959	      3.00963626	    101.74533731	      1.77579113	     29.31887799	     -3.99992756	     -7.49999987	    -32.84545618	     -2.66573070	     -1.56246386	     90.58017515	     10.21104417	     68.16384205	    127.81241467	     90.04365256	     92.18958686	      9.90349949	     80.28487448	    123.55149991	     80.65263889
      5.03333330	    -26.17088373	      1.12748036	     -2.69183517	      0.52533079	      0.54245995	      0.12818698	     96.02678368	    -18.93927325	      5.42462433	    104.26768028	      1.81981432	     35.82362778	     -8.52041967	     -7.49999987	     98.02489851	    -25.69517411	      4.24578111	    103.78522313	      1.81139386	     29.51648074	     -3.97849807	     -7.49999987	    -33.15747328	     -2.50568249	     -1.29184938	     92.40074918	     10.11908691	     67.07278041	    127.88670522	     89.13522113	     94.22910372	     10.24530735	     78.51750977	    123.33434703	     80.20903547
      5.05000000	    -26.38845544	      1.15909502	     -2.75156442	      0.52689783	      0.53475413	      0.13200227	     98.07218250	    -18.73112885	      6.05390601	    105.92950182	      1.84881858	     35.71326339	     -8.68771205	     -7.49999987	    100.23881282	    -25.62117059	      5.21268678	    105.29553588	      1.83775379	     29.46069853	     -3.82218175	     -7.49999987	    -33.32913396	     -2.68796916	     -1.36014224	     93.64454433	     10.10635369	     66.38949747	    127.87681349	     89.12162257	     95.36538063	      9.89837831	     77.62259927	    123.04120065	     80.20997964
      5.06666670	    -26.72830463	      1.29511101	     -2.74281978	      0.52403832	      0.52711533	      0.12455079	     99.93846697	    -18.75173954	      6.76548156	    107.00778279	      1.86763813	     35.38721347	     -8.94506415	     -7.49999987	    102.35758881	    -25.20197925	      5.89149962	    106.92735176	      1.86623435	     29.48347000	     -3.73431955	     -7.49999987	    -33.55312273	     -2.41638287	     -1.27209171	     94.50569431	      9.77831654	     65.59364075	    127.85547130	     89.08641504	     96.34636507	     10.01736441	     76.77997924	    122.85373182	     80.21345674
      5.08333330	    -26.96621342	      1.31801935	     -2.74538870	      0.52169532	      0.52559383	      0.12642636	    101.14763972	    -18.50320744	      7.11580727	    107.48144677	      1.87590513	     34.07655748	    -10.29749161	     -7.49999987	    103.61564870	    -24.90320106	      6.30593141	    107.64397677	      1.87874181	     28.87907377	     -4.61617074	     -7.49999987	    -33.98335868	     -2.40101007	     -0.96537121	     94.75547637	      9.38545289	     64.92788426	    128.29010170	     88.85279161	     96.71331507	     10.20634706	     76.20840627	    122.74039035	     80.19579354
      5.10000000	    -26.90913043	      1.35270276	     -2.68704840	      0.52266684	      0.51943367	      0.12691896	    102.00254734	    -18.48832229	      7.51009392	    108.22916212	      1.88895523	     33.71374028	    -10.57647623	     -7.49999987	    104.19841655	    -24.67053961	      6.69256275	    108.20048767	      1.88845476	     28.72148215	     -4.59474821	     -7.49999987	    -34.46812219	     -2.32904182	     -0.95934614	     94.92468706	      9.35635900	     65.02795990	    128.29914026	     88.85056120	     96.68983917	     10.19074418	     76.21140099	    122.74854794	     80.21698632
      5.11666670	    -27.68980874	      1.15545422	     -2.58974504	      0.52291616	      0.51027396	      0.13168630	    103.28745760	    -18.23433827	      7.49936429	    108.86100357	      1.89998294	     32.65375318	    -12.06466398	     -7.49999987	    105.90025049	    -24.63930687	      7.63483955	    108.63954355	      1.89611773	     28.02550435	     -4.43427491	     -7.49999987	    -33.90787907	     -2.08617112	     -0.86631546	     95.20732262	      9.73413480	     65.90350298	    128.33212975	     87.18213945	     96.53972477	     10.17427212	     76.53217620	    123.41700074	     79.73489476
      5.13333330	    -27.77579648	      1.06573234	     -2.54247316	      0.51515777	      0.49712404	      0.13058732	    104.34635946	    -18.08696226	      7.80374700	    110.06706198	      1.92103263	     32.62097860	    -12.27612755	     -7.49999987	    107.52372776	    -24.50884481	      8.55277429	    109.81520729	      1.91663694	     27.94185814	     -4.19545826	     -7.49999987	    -34.03204935	     -1.93014497	     -0.64586427	     96.04195703	      9.91261794	     65.31763815	    128.23399705	     86.03771717	     97.55182510	     10.43883471	     76.19814419	    123.69758636	     79.07209737
      5.15000000	    -28.02489398	      0.87464940	     -2.61441281	      0.51182863	      0.49023070	      0.12575400	    105.56216948	    -17.96182306	      8.21201650	    111.07543954	      1.93863214	     32.80049683	    -12.13587087	     -7.49999987	    109.49320460	    -24.15198964	      9.51770514	    111.21722915	      1.94110683	     27.98000133	     -4.05833241	     -7.49999987	    -33.87713606	     -1.62990506	     -0.55392308	     96.65750024	      9.83173761	     64.68402083	    128.23690859	     86.03471705	     98.37547293	     10.41676783	     75.72343870	    123.69510987	     79.17375938
